<svg width="16" height="11" viewBox="0 0 16 11" fill="none" xmlns="http://www.w3.org/2000/svg">
<path d="M14.4 2.4C13.96 2.4 13.6 2.04 13.6 1.6C13.6 1.16 13.96 0.8 14.4 0.8V0H1.6V0.8C2.04 0.8 2.4 1.16 2.4 1.6C2.4 2.04 2.04 2.4 1.6 2.4H0V8H1.6C2.04 8 2.4 8.36 2.4 8.8C2.4 9.24 2.04 9.6 1.6 9.6V10.4H14.4V9.6C13.96 9.6 13.6 9.24 13.6 8.8C13.6 8.36 13.96 8 14.4 8H16V2.4H14.4ZM14.4 5.6H13.6V6.4H12V5.6H9.128C8.96 6.064 8.52 6.4 8 6.4C7.48 6.4 7.04 6.064 6.872 5.6H4V6.4H2.4V5.6H1.6V4.8H2.4V4H4V4.8H6.872C7.04 4.336 7.48 4 8 4C8.52 4 8.96 4.336 9.128 4.8H12V4H13.6V4.8H14.4V5.6Z" fill="white"/>
</svg>
