<svg width="16" height="6" viewBox="0 0 16 6" fill="none" xmlns="http://www.w3.org/2000/svg">
<path d="M14.5455 2.18182C13.0909 2.18182 12.3636 0 10.1818 0C8 0 8 1.45455 8 1.45455C8 1.45455 8 0 5.81818 0C3.63636 0 2.90909 2.18182 1.45455 2.18182C0.727273 2.18182 0 1.45455 0 1.45455C0 1.45455 0.727273 5.09091 3.63636 5.09091C7.27273 5.09091 8 2.90909 8 2.90909C8 2.90909 8.72727 5.09091 12.3636 5.09091C15.2727 5.09091 16 1.45455 16 1.45455C16 1.45455 15.2727 2.18182 14.5455 2.18182Z" fill="white"/>
</svg>
