<svg width="16" height="7" viewBox="0 0 16 7" fill="none" xmlns="http://www.w3.org/2000/svg">
<path d="M13.0437 1.01548C14.2822 1.57403 15.3499 2.41257 15.9259 3.60021C15.9859 3.72387 16.0096 3.86199 15.9943 3.99857C15.979 4.13515 15.9253 4.2646 15.8394 4.37191C15.7536 4.47923 15.6391 4.56003 15.5092 4.60494C15.3793 4.64985 15.2393 4.65703 15.1055 4.62567C10.7732 3.61039 6.39061 5.35585 4.08007 6.30857C2.62989 6.90639 1.22189 6.41839 0.493886 5.43512C0.115288 4.93399 -0.0558215 4.30633 0.0160677 3.68239C0.26334 1.64239 2.8277 0.769666 4.51934 0.385666C7.26916 -0.237607 10.4452 -0.158334 13.0437 1.01476V1.01548Z" fill="white"/>
</svg>
